<svg width="167" height="57" viewBox="0 0 167 57" fill="none" xmlns="http://www.w3.org/2000/svg">
<g clip-path="url(#clip0_3210_637)">
<path d="M53.76 0.75C63.2626 4.30458 30.4039 14.2373 27.5476 14.9082C-24.6478 7.17364 5.40305 5.879 53.76 0.75Z" fill="#71BBFF"/>
<path d="M27.5473 32.7415C23.6345 31.5254 6.35368 25.3791 1.08708 23.3478C-6.07677 20.5847 24.7957 20.0444 27.5473 21.3266C50.0237 14.6968 69.3096 16.6277 27.5473 32.7415Z" fill="#7928FF"/>
<path d="M0 32.8418L27.5474 41.5255C27.2767 71.8681 4.45452 47.6743 0 32.8418Z" fill="#01D797"/>
</g>
<path d="M65.3618 41.5868H60.3237V15.1582H76.5614V20.0709H65.3255V26.4138H75.3291V31.0169H65.3618V41.5868Z" fill="black"/>
<path d="M83.0303 41.5868H78.2097V15.1582H83.0303V41.5868Z" fill="black"/>
<path d="M90.8371 41.5868H86.0165V24.002H90.8371V41.5868ZM85.4366 18.1665C85.4366 16.4993 86.7777 15.1582 88.4087 15.1582C90.076 15.1582 91.3808 16.4993 91.3808 18.1665C91.3808 19.7613 90.076 21.1024 88.4087 21.1024C86.7777 21.1024 85.4366 19.7613 85.4366 18.1665Z" fill="black"/>
<path d="M98.6439 31.3295V41.5868H93.8234V23.7543H98.499V25.9652C99.5863 24.1167 101.725 23.2831 103.646 23.2831C108.068 23.2831 110.097 26.4364 110.097 30.3509V41.5868H105.277V31.1845C105.277 29.191 104.298 27.6325 101.978 27.6325C99.8763 27.6325 98.6439 29.2635 98.6439 31.3295Z" fill="black"/>
<path d="M120.825 27.1024C118.361 27.1024 116.295 28.8784 116.295 32.1042C116.295 35.33 118.397 37.1422 120.861 37.1422C123.326 37.1422 124.558 35.5112 124.957 34.1339L129.198 35.5475C128.4 38.5196 125.61 41.5868 120.861 41.5868C115.606 41.5868 111.474 37.5772 111.474 32.1042C111.474 26.595 115.533 22.6443 120.717 22.6443C125.573 22.6443 128.328 25.6526 129.089 28.6609L124.776 30.1107C124.341 28.6247 123.217 27.1024 120.825 27.1024Z" fill="black"/>
<path d="M129.41 36.2286C129.41 33.039 131.766 31.257 134.738 30.8221L139.124 30.1696C140.138 30.0247 140.465 29.5172 140.465 28.9011C140.465 27.6325 139.486 26.5814 137.456 26.5814C135.354 26.5814 134.194 27.9225 134.049 29.481L129.772 28.5749C130.062 25.784 132.636 22.7032 137.42 22.7032C143.074 22.7032 145.176 25.8927 145.176 29.481V38.2523C145.176 39.1946 145.285 41.5868 145.394 41.5868H140.972C140.863 41.5868 140.791 39.6296 140.791 38.9409C139.885 40.3545 138.181 41.5868 135.535 41.5868C131.73 41.5868 129.41 39.0194 129.41 36.2286ZM136.55 37.9985C138.58 37.9985 140.465 37.0199 140.465 33.8666V33.0692L136.441 33.6854C135.209 33.8666 134.23 34.5553 134.23 35.9326C134.23 36.9837 134.992 37.9985 136.55 37.9985Z" fill="black"/>
<path d="M152.681 47.907H147.861V23.188H152.536V25.3627C153.334 23.9853 155.327 22.7893 158.009 22.7893C163.229 22.7893 166.237 26.7762 166.237 32.068C166.237 37.4685 162.866 41.5868 157.828 41.5868C155.364 41.5868 153.551 40.4768 152.681 39.2807V47.907ZM161.489 32.1042C161.489 28.9509 159.532 27.1024 157.067 27.1024C154.602 27.1024 152.609 28.9509 152.609 32.1042C152.609 35.2575 154.602 37.1422 157.067 37.1422C159.532 37.1422 161.489 35.2938 161.489 32.1042Z" fill="black"/>
<defs>
<clipPath id="clip0_3210_637">
<rect width="55.5" height="55.5" fill="white" transform="translate(0 0.75)"/>
</clipPath>
</defs>
</svg>
