<svg width="176" height="45" viewBox="0 0 176 45" fill="none" xmlns="http://www.w3.org/2000/svg">
<path d="M59.2247 34L55.4287 27.11H54.3627V34H49.9167V15.748H57.3787C58.8174 15.748 60.0394 15.9993 61.0447 16.502C62.0674 17.0047 62.83 17.698 63.3327 18.582C63.8354 19.4487 64.0867 20.4193 64.0867 21.494C64.0867 22.7073 63.74 23.7907 63.0467 24.744C62.3707 25.6973 61.3654 26.3733 60.0307 26.772L64.2427 34H59.2247ZM54.3627 23.964H57.1187C57.9334 23.964 58.54 23.7647 58.9387 23.366C59.3547 22.9673 59.5627 22.404 59.5627 21.676C59.5627 20.9827 59.3547 20.4367 58.9387 20.038C58.54 19.6393 57.9334 19.44 57.1187 19.44H54.3627V23.964ZM80.5536 26.512C80.5536 26.928 80.5276 27.3613 80.4756 27.812H70.4136C70.483 28.7133 70.769 29.4067 71.2716 29.892C71.7916 30.36 72.4243 30.594 73.1696 30.594C74.279 30.594 75.0503 30.126 75.4836 29.19H80.2156C79.973 30.1433 79.531 31.0013 78.8896 31.764C78.2656 32.5267 77.477 33.1247 76.5236 33.558C75.5703 33.9913 74.5043 34.208 73.3256 34.208C71.9043 34.208 70.639 33.9047 69.5296 33.298C68.4203 32.6913 67.5536 31.8247 66.9296 30.698C66.3056 29.5713 65.9936 28.254 65.9936 26.746C65.9936 25.238 66.297 23.9207 66.9036 22.794C67.5276 21.6673 68.3943 20.8007 69.5036 20.194C70.613 19.5873 71.887 19.284 73.3256 19.284C74.7296 19.284 75.9776 19.5787 77.0696 20.168C78.1616 20.7573 79.011 21.598 79.6176 22.69C80.2416 23.782 80.5536 25.056 80.5536 26.512ZM76.0036 25.342C76.0036 24.5793 75.7436 23.9727 75.2236 23.522C74.7036 23.0713 74.0536 22.846 73.2736 22.846C72.5283 22.846 71.8956 23.0627 71.3756 23.496C70.873 23.9293 70.561 24.5447 70.4396 25.342H76.0036ZM91.7391 19.336C93.4378 19.336 94.7898 19.8907 95.7951 21C96.8178 22.092 97.3291 23.6 97.3291 25.524V34H92.9091V26.122C92.9091 25.1513 92.6578 24.3973 92.1551 23.86C91.6524 23.3227 90.9764 23.054 90.1271 23.054C89.2778 23.054 88.6018 23.3227 88.0991 23.86C87.5964 24.3973 87.3451 25.1513 87.3451 26.122V34H82.8991V19.492H87.3451V21.416C87.7958 20.7747 88.4024 20.272 89.1651 19.908C89.9278 19.5267 90.7858 19.336 91.7391 19.336ZM108.505 30.23V34H106.243C104.631 34 103.374 33.61 102.473 32.83C101.571 32.0327 101.121 30.7413 101.121 28.956V23.184H99.3526V19.492H101.121V15.956H105.567V19.492H108.479V23.184H105.567V29.008C105.567 29.4413 105.671 29.7533 105.879 29.944C106.087 30.1347 106.433 30.23 106.919 30.23H108.505ZM124.657 26.512C124.657 26.928 124.631 27.3613 124.579 27.812H114.517C114.586 28.7133 114.872 29.4067 115.375 29.892C115.895 30.36 116.528 30.594 117.273 30.594C118.382 30.594 119.154 30.126 119.587 29.19H124.319C124.076 30.1433 123.634 31.0013 122.993 31.764C122.369 32.5267 121.58 33.1247 120.627 33.558C119.674 33.9913 118.608 34.208 117.429 34.208C116.008 34.208 114.742 33.9047 113.633 33.298C112.524 32.6913 111.657 31.8247 111.033 30.698C110.409 29.5713 110.097 28.254 110.097 26.746C110.097 25.238 110.4 23.9207 111.007 22.794C111.631 21.6673 112.498 20.8007 113.607 20.194C114.716 19.5873 115.99 19.284 117.429 19.284C118.833 19.284 120.081 19.5787 121.173 20.168C122.265 20.7573 123.114 21.598 123.721 22.69C124.345 23.782 124.657 25.056 124.657 26.512ZM120.107 25.342C120.107 24.5793 119.847 23.9727 119.327 23.522C118.807 23.0713 118.157 22.846 117.377 22.846C116.632 22.846 115.999 23.0627 115.479 23.496C114.976 23.9293 114.664 24.5447 114.543 25.342H120.107ZM126.119 26.72C126.119 25.2293 126.396 23.9207 126.951 22.794C127.523 21.6673 128.294 20.8007 129.265 20.194C130.235 19.5873 131.319 19.284 132.515 19.284C133.537 19.284 134.43 19.492 135.193 19.908C135.973 20.324 136.571 20.87 136.987 21.546V19.492H141.433V34H136.987V31.946C136.553 32.622 135.947 33.168 135.167 33.584C134.404 34 133.511 34.208 132.489 34.208C131.31 34.208 130.235 33.9047 129.265 33.298C128.294 32.674 127.523 31.7987 126.951 30.672C126.396 29.528 126.119 28.2107 126.119 26.72ZM136.987 26.746C136.987 25.6367 136.675 24.7613 136.051 24.12C135.444 23.4787 134.699 23.158 133.815 23.158C132.931 23.158 132.177 23.4787 131.553 24.12C130.946 24.744 130.643 25.6107 130.643 26.72C130.643 27.8293 130.946 28.7133 131.553 29.372C132.177 30.0133 132.931 30.334 133.815 30.334C134.699 30.334 135.444 30.0133 136.051 29.372C136.675 28.7307 136.987 27.8553 136.987 26.746ZM150.551 34.208C149.286 34.208 148.159 33.9913 147.171 33.558C146.183 33.1247 145.403 32.5353 144.831 31.79C144.259 31.0273 143.938 30.178 143.869 29.242H148.263C148.315 29.7447 148.549 30.152 148.965 30.464C149.381 30.776 149.892 30.932 150.499 30.932C151.054 30.932 151.478 30.828 151.773 30.62C152.085 30.3947 152.241 30.1087 152.241 29.762C152.241 29.346 152.024 29.0427 151.591 28.852C151.158 28.644 150.456 28.4187 149.485 28.176C148.445 27.9333 147.578 27.682 146.885 27.422C146.192 27.1447 145.594 26.72 145.091 26.148C144.588 25.5587 144.337 24.77 144.337 23.782C144.337 22.95 144.562 22.196 145.013 21.52C145.481 20.8267 146.157 20.2807 147.041 19.882C147.942 19.4833 149.008 19.284 150.239 19.284C152.059 19.284 153.489 19.7347 154.529 20.636C155.586 21.5373 156.193 22.7333 156.349 24.224H152.241C152.172 23.7213 151.946 23.3227 151.565 23.028C151.201 22.7333 150.716 22.586 150.109 22.586C149.589 22.586 149.19 22.69 148.913 22.898C148.636 23.0887 148.497 23.3573 148.497 23.704C148.497 24.12 148.714 24.432 149.147 24.64C149.598 24.848 150.291 25.056 151.227 25.264C152.302 25.5413 153.177 25.8187 153.853 26.096C154.529 26.356 155.118 26.7893 155.621 27.396C156.141 27.9853 156.41 28.7827 156.427 29.788C156.427 30.6373 156.184 31.4 155.699 32.076C155.231 32.7347 154.546 33.2547 153.645 33.636C152.761 34.0173 151.73 34.208 150.551 34.208ZM172.823 26.512C172.823 26.928 172.797 27.3613 172.745 27.812H162.683C162.752 28.7133 163.038 29.4067 163.541 29.892C164.061 30.36 164.694 30.594 165.439 30.594C166.548 30.594 167.32 30.126 167.753 29.19H172.485C172.242 30.1433 171.8 31.0013 171.159 31.764C170.535 32.5267 169.746 33.1247 168.793 33.558C167.84 33.9913 166.774 34.208 165.595 34.208C164.174 34.208 162.908 33.9047 161.799 33.298C160.69 32.6913 159.823 31.8247 159.199 30.698C158.575 29.5713 158.263 28.254 158.263 26.746C158.263 25.238 158.566 23.9207 159.173 22.794C159.797 21.6673 160.664 20.8007 161.773 20.194C162.882 19.5873 164.156 19.284 165.595 19.284C166.999 19.284 168.247 19.5787 169.339 20.168C170.431 20.7573 171.28 21.598 171.887 22.69C172.511 23.782 172.823 25.056 172.823 26.512ZM168.273 25.342C168.273 24.5793 168.013 23.9727 167.493 23.522C166.973 23.0713 166.323 22.846 165.543 22.846C164.798 22.846 164.165 23.0627 163.645 23.496C163.142 23.9293 162.83 24.5447 162.709 25.342H168.273Z" fill="#375DFB"/>
<path d="M8.21545 19.3629L19.3687 8.21545L30.5161 19.3629H38.7316L19.3687 0L0 19.3629H8.21545Z" fill="#375DFB"/>
<path d="M31.4305 23.3809V34.6836H7.06586V23.3809H1.25928V40.4901H37.2428V23.3809H31.4305Z" fill="#375DFB"/>
<path d="M10.7061 8.72266H4.84204V15.0179H10.7061V8.72266Z" fill="#375DFB"/>
<path d="M24.2775 24.8989C24.8513 22.4765 23.3528 20.0477 20.9304 19.4739C18.5081 18.9001 16.0793 20.3987 15.5055 22.821C14.9317 25.2433 16.4302 27.6722 18.8526 28.246C21.2749 28.8197 23.7038 27.3212 24.2775 24.8989Z" fill="#375DFB"/>
<path d="M37.2444 22.6777H20.7273V25.4373H37.2444V22.6777Z" fill="#375DFB"/>
</svg>
